<svg width="160" height="160" viewBox="0 0 160 160" fill="none" xmlns="http://www.w3.org/2000/svg">
<rect x="20" y="20" width="120" height="120" rx="16" fill="url(#paint0_radial_105_6)"/>
<path d="M37.0559 94.04C36.0693 94.04 35.4026 93.7867 35.0559 93.28C34.7093 92.7733 34.5359 92.2133 34.5359 91.6V63.96C34.5359 62.68 35.3093 62.04 36.8559 62.04C38.4559 62.04 39.2559 62.68 39.2559 63.96V90H52.6159C53.5759 90 54.0559 90.6533 54.0559 91.96C54.1093 93.3467 53.6293 94.04 52.6159 94.04H37.0559ZM70.1791 69.92C70.8724 69.92 71.5791 70.0667 72.2991 70.36C73.0457 70.6533 73.7657 71.0267 74.4591 71.48H74.4191C75.1124 71.9867 75.6457 72.6533 76.0191 73.48C76.3924 74.28 76.5791 75.2133 76.5791 76.28V87.64C76.5791 89.8267 75.8591 91.44 74.4191 92.48C73.0057 93.4933 71.5924 94 70.1791 94H63.7791C63.0857 94 62.3791 93.88 61.6591 93.64C60.9391 93.4 60.2324 93.0133 59.5391 92.48C58.0991 91.4667 57.3791 89.8533 57.3791 87.64V76.28C57.3791 75.2133 57.5657 74.28 57.9391 73.48C58.3124 72.6533 58.8457 71.9867 59.5391 71.48H59.4991C60.1657 71.0267 60.8724 70.6533 61.6191 70.36C62.3657 70.0667 63.0857 69.92 63.7791 69.92H70.1791ZM69.4591 90.24C70.4457 90.24 71.1391 89.96 71.5391 89.4C71.9657 88.84 72.1791 88.24 72.1791 87.6V76.32C72.1791 75.6533 71.9657 75.0533 71.5391 74.52C71.1391 73.96 70.4457 73.68 69.4591 73.68H64.4991C63.5124 73.68 62.8057 73.96 62.3791 74.52C61.9791 75.0533 61.7791 75.6533 61.7791 76.32V87.6C61.7791 88.24 61.9791 88.84 62.3791 89.4C62.8057 89.96 63.5124 90.24 64.4991 90.24H69.4591ZM88.0769 91.2C87.3835 91.2 86.6635 91.08 85.9169 90.84C85.1969 90.6 84.4902 90.2533 83.7969 89.8C82.3569 88.8667 81.6369 87.2933 81.6369 85.08V76.04C81.6369 74.92 81.8235 73.96 82.1969 73.16C82.5969 72.36 83.1302 71.7333 83.7969 71.28C84.4902 70.8533 85.1969 70.52 85.9169 70.28C86.6369 70.04 87.3435 69.92 88.0369 69.92H94.7569C95.4235 69.92 96.1169 70.0667 96.8369 70.36C97.5569 70.6533 98.2235 71.0267 98.8369 71.48C99.4502 71.9867 99.9435 72.6533 100.317 73.48C100.69 74.3067 100.877 75.24 100.877 76.28V93.24C100.877 94.36 100.69 95.3067 100.317 96.08C99.9702 96.88 99.4769 97.5467 98.8369 98.08C98.2235 98.5867 97.5569 98.9733 96.8369 99.24C96.1435 99.5333 95.4502 99.68 94.7569 99.68H88.0369C86.6235 99.68 85.1969 99.2667 83.7569 98.44C83.0102 98.0133 82.4635 97.4667 82.1169 96.8C81.7969 96.1333 81.6369 95.36 81.6369 94.48V94C81.6369 93.4667 81.8102 93.04 82.1569 92.72C82.5035 92.4 83.0502 92.24 83.7969 92.24C85.2902 92.4 86.0369 92.9867 86.0369 94V94.44C86.0369 94.7333 86.2369 95.0533 86.6369 95.4C87.0635 95.7467 87.7702 95.92 88.7569 95.92H93.7569C94.7435 95.92 95.4369 95.64 95.8369 95.08C96.2635 94.52 96.4769 93.8933 96.4769 93.2V76.32C96.4769 75.6533 96.2635 75.0533 95.8369 74.52C95.4369 73.96 94.7435 73.68 93.7569 73.68H88.7569C87.7702 73.68 87.0635 73.96 86.6369 74.52C86.2369 75.0533 86.0369 75.6533 86.0369 76.32V84.76C86.0369 85.4267 86.2369 86.0533 86.6369 86.64C87.0635 87.2 87.7702 87.48 88.7569 87.48H92.9169C93.8769 87.48 94.3569 88.0933 94.3569 89.32C94.3569 89.88 94.2369 90.3333 93.9969 90.68C93.7835 91.0267 93.4235 91.2 92.9169 91.2H88.0769ZM119.046 69.92C119.74 69.92 120.446 70.0667 121.166 70.36C121.913 70.6533 122.633 71.0267 123.326 71.48H123.286C123.98 71.9867 124.513 72.6533 124.886 73.48C125.26 74.28 125.446 75.2133 125.446 76.28V87.64C125.446 89.8267 124.726 91.44 123.286 92.48C121.873 93.4933 120.46 94 119.046 94H112.646C111.953 94 111.246 93.88 110.526 93.64C109.806 93.4 109.1 93.0133 108.406 92.48C106.966 91.4667 106.246 89.8533 106.246 87.64V76.28C106.246 75.2133 106.433 74.28 106.806 73.48C107.18 72.6533 107.713 71.9867 108.406 71.48H108.366C109.033 71.0267 109.74 70.6533 110.486 70.36C111.233 70.0667 111.953 69.92 112.646 69.92H119.046ZM118.326 90.24C119.313 90.24 120.006 89.96 120.406 89.4C120.833 88.84 121.046 88.24 121.046 87.6V76.32C121.046 75.6533 120.833 75.0533 120.406 74.52C120.006 73.96 119.313 73.68 118.326 73.68H113.366C112.38 73.68 111.673 73.96 111.246 74.52C110.846 75.0533 110.646 75.6533 110.646 76.32V87.6C110.646 88.24 110.846 88.84 111.246 89.4C111.673 89.96 112.38 90.24 113.366 90.24H118.326Z" fill="white"/>
<defs>
<radialGradient id="paint0_radial_105_6" cx="0" cy="0" r="1" gradientUnits="userSpaceOnUse" gradientTransform="translate(20 140) rotate(-45) scale(169.706)">
<stop stop-color="#345A58"/>
<stop offset="1" stop-color="#007872"/>
</radialGradient>
</defs>
</svg>
